{
  "asset": {
    "generator": "Khronos glTF Blender I/O v4.1.63",
    "version": "2.0"
  },
  "scene": 0,
  "scenes": [
    {
      "name": "Scene",
      "nodes": [3]
    }
  ],
  "nodes": [
    {
      "mesh": 0,
      "name": "defaultMaterial",
      "scale": [0.8791362643241882, 0.879136323928833, 0.8791362047195435],
      "translation": [
        1.3023743629455566, -2.4353697299957275, -168.41046142578125
      ]
    },
    {
      "children": [0],
      "name": "Sphere001",
      "rotation": [-0.70710688829422, 0, 0, 0.7071066498756409],
      "scale": [0.900879979133606, 1.0863231420516968, 1.0223301649093628],
      "translation": [0, 173.28646850585938, -2.915102005004883]
    },
    {
      "children": [1],
      "name": "Collada visual scene group",
      "rotation": [0.70710688829422, 0, 0, 0.7071066498756409]
    },
    {
      "children": [2],
      "name": "Sketchfab_model",
      "rotation": [-0.70710688829422, 0, 0, 0.7071066498756409],
      "scale": [0.017797458916902542, 0.01779746077954769, 0.01779746077954769]
    }
  ],
  "materials": [
    {
      "doubleSided": true,
      "name": "material",
      "normalTexture": {
        "index": 0
      },
      "occlusionTexture": {
        "index": 1,
        "strength": 0.504238486289978
      },
      "pbrMetallicRoughness": {
        "baseColorTexture": {
          "index": 2
        },
        "metallicRoughnessTexture": {
          "index": 1
        }
      }
    }
  ],
  "meshes": [
    {
      "name": "defaultMaterial",
      "primitives": [
        {
          "attributes": {
            "POSITION": 0,
            "NORMAL": 1,
            "TEXCOORD_0": 2
          },
          "indices": 3,
          "material": 0
        }
      ]
    }
  ],
  "textures": [
    {
      "sampler": 0,
      "source": 0
    },
    {
      "sampler": 0,
      "source": 1
    },
    {
      "sampler": 0,
      "source": 2
    }
  ],
  "images": [
    {
      "mimeType": "image/png",
      "name": "material_normal",
      "uri": "textures/material_normal.png"
    },
    {
      "mimeType": "image/png",
      "name": "material_metallicRoughness",
      "uri": "textures/material_metallicRoughness.png"
    },
    {
      "mimeType": "image/jpeg",
      "name": "material_baseColor",
      "uri": "textures/material_baseColor.jpg"
    }
  ],
  "accessors": [
    {
      "bufferView": 0,
      "componentType": 5126,
      "count": 1953,
      "max": [151.15541076660156, 172.98052978515625, 168.52731323242188],
      "min": [-151.15553283691406, -153.12454223632812, -122.23550415039062],
      "type": "VEC3"
    },
    {
      "bufferView": 1,
      "componentType": 5126,
      "count": 1953,
      "type": "VEC3"
    },
    {
      "bufferView": 2,
      "componentType": 5126,
      "count": 1953,
      "type": "VEC2"
    },
    {
      "bufferView": 3,
      "componentType": 5123,
      "count": 10602,
      "type": "SCALAR"
    }
  ],
  "bufferViews": [
    {
      "buffer": 0,
      "byteLength": 23436,
      "byteOffset": 0,
      "target": 34962
    },
    {
      "buffer": 0,
      "byteLength": 23436,
      "byteOffset": 23436,
      "target": 34962
    },
    {
      "buffer": 0,
      "byteLength": 15624,
      "byteOffset": 46872,
      "target": 34962
    },
    {
      "buffer": 0,
      "byteLength": 21204,
      "byteOffset": 62496,
      "target": 34963
    }
  ],
  "samplers": [
    {
      "magFilter": 9729,
      "minFilter": 9987
    }
  ],
  "buffers": [
    {
      "byteLength": 83700,
      "uri": "scene.bin"
    }
  ]
}
