{
  "asset": {
    "generator": "Khronos glTF Blender I/O v4.1.63",
    "version": "2.0"
  },
  "scene": 0,
  "scenes": [
    {
      "name": "Scene",
      "nodes": [16]
    }
  ],
  "nodes": [
    {
      "mesh": 0,
      "name": "Object_15.001",
      "translation": [0, 0.65625, 0.46875]
    },
    {
      "children": [0],
      "name": "cube_5"
    },
    {
      "mesh": 1,
      "name": "Object_17.001",
      "translation": [0, 0.59375, 0.46875]
    },
    {
      "children": [2],
      "name": "cube_6"
    },
    {
      "children": [1, 3],
      "name": "beak_7"
    },
    {
      "mesh": 2,
      "name": "Object_5.001",
      "translation": [0, 0.2499999850988388, -0.1562500149011612]
    },
    {
      "children": [5],
      "name": "cube_0"
    },
    {
      "mesh": 3,
      "name": "Object_7.001",
      "translation": [0, 0.75, 0.1250000149011612]
    },
    {
      "children": [7],
      "name": "head_1"
    },
    {
      "mesh": 4,
      "name": "Object_12",
      "translation": [-0.28125, 0.3437499701976776, -0.15625]
    },
    {
      "children": [9],
      "name": "left_3"
    },
    {
      "mesh": 5,
      "name": "Object_10",
      "translation": [0.2812500298023224, 0.3437499701976776, -0.15625]
    },
    {
      "children": [11],
      "name": "right_2"
    },
    {
      "children": [10, 12],
      "name": "wing_4"
    },
    {
      "children": [4, 6, 8, 13],
      "name": "_8"
    },
    {
      "children": [14],
      "name": "GLTF_SceneRootNode.001",
      "rotation": [0.70710688829422, 0, 0, 0.7071066498756409]
    },
    {
      "children": [15],
      "name": "root.001",
      "rotation": [-0.70710688829422, 0, 0, 0.7071066498756409],
      "scale": [4.062190532684326, 4.062191009521484, 4.062191009521484],
      "translation": [
        0.11867436021566391, -1.5939075946807861, 0.6161332726478577
      ]
    }
  ],
  "materials": [
    {
      "alphaCutoff": 0.05000000074505806,
      "alphaMode": "MASK",
      "doubleSided": true,
      "name": "material_2",
      "pbrMetallicRoughness": {
        "baseColorTexture": {
          "index": 0
        },
        "metallicFactor": 0
      }
    },
    {
      "doubleSided": true,
      "name": "material_0",
      "pbrMetallicRoughness": {
        "baseColorTexture": {
          "index": 1
        },
        "metallicFactor": 0
      }
    },
    {
      "alphaCutoff": 0.05000000074505806,
      "alphaMode": "MASK",
      "doubleSided": true,
      "name": "material_1",
      "pbrMetallicRoughness": {
        "baseColorTexture": {
          "index": 2
        },
        "metallicFactor": 0
      }
    }
  ],
  "meshes": [
    {
      "name": "Object_4.001",
      "primitives": [
        {
          "attributes": {
            "POSITION": 0,
            "NORMAL": 1,
            "TEXCOORD_0": 2
          },
          "indices": 3,
          "material": 0
        }
      ]
    },
    {
      "name": "Object_5.001",
      "primitives": [
        {
          "attributes": {
            "POSITION": 4,
            "NORMAL": 5,
            "TEXCOORD_0": 6
          },
          "indices": 3,
          "material": 0
        }
      ]
    },
    {
      "name": "Object_0.001",
      "primitives": [
        {
          "attributes": {
            "POSITION": 7,
            "NORMAL": 8,
            "TEXCOORD_0": 9
          },
          "indices": 3,
          "material": 1
        }
      ]
    },
    {
      "name": "Object_1.001",
      "primitives": [
        {
          "attributes": {
            "POSITION": 10,
            "NORMAL": 11,
            "TEXCOORD_0": 12
          },
          "indices": 3,
          "material": 1
        }
      ]
    },
    {
      "name": "Object_3.001",
      "primitives": [
        {
          "attributes": {
            "POSITION": 13,
            "NORMAL": 14,
            "TEXCOORD_0": 15
          },
          "indices": 3,
          "material": 2
        }
      ]
    },
    {
      "name": "Object_2.001",
      "primitives": [
        {
          "attributes": {
            "POSITION": 16,
            "NORMAL": 17,
            "TEXCOORD_0": 18
          },
          "indices": 3,
          "material": 2
        }
      ]
    }
  ],
  "textures": [
    {
      "sampler": 0,
      "source": 0
    },
    {
      "sampler": 0,
      "source": 1
    },
    {
      "sampler": 0,
      "source": 2
    }
  ],
  "images": [
    {
      "mimeType": "image/png",
      "name": "material_2_baseColor",
      "uri": "textures/material_2_baseColor.png"
    },
    {
      "mimeType": "image/png",
      "name": "material_0_baseColor",
      "uri": "textures/material_0_baseColor.png"
    },
    {
      "mimeType": "image/png",
      "name": "material_1_baseColor",
      "uri": "textures/material_1_baseColor.png"
    }
  ],
  "accessors": [
    {
      "bufferView": 0,
      "componentType": 5126,
      "count": 24,
      "max": [0.25, 0.03125, 0.09375],
      "min": [-0.25, -0.03125, -0.09375],
      "type": "VEC3"
    },
    {
      "bufferView": 1,
      "componentType": 5126,
      "count": 24,
      "type": "VEC3"
    },
    {
      "bufferView": 2,
      "componentType": 5126,
      "count": 24,
      "type": "VEC2"
    },
    {
      "bufferView": 3,
      "componentType": 5123,
      "count": 36,
      "type": "SCALAR"
    },
    {
      "bufferView": 4,
      "componentType": 5126,
      "count": 24,
      "max": [0.1875, 0.03125, 0.09375],
      "min": [-0.1875, -0.03125, -0.09375],
      "type": "VEC3"
    },
    {
      "bufferView": 5,
      "componentType": 5126,
      "count": 24,
      "type": "VEC3"
    },
    {
      "bufferView": 6,
      "componentType": 5126,
      "count": 24,
      "type": "VEC2"
    },
    {
      "bufferView": 7,
      "componentType": 5126,
      "count": 24,
      "max": [0.25, 0.25, 0.34375],
      "min": [-0.25, -0.25, -0.34375],
      "type": "VEC3"
    },
    {
      "bufferView": 8,
      "componentType": 5126,
      "count": 24,
      "type": "VEC3"
    },
    {
      "bufferView": 9,
      "componentType": 5126,
      "count": 24,
      "type": "VEC2"
    },
    {
      "bufferView": 10,
      "componentType": 5126,
      "count": 24,
      "max": [0.25, 0.25, 0.25],
      "min": [-0.25, -0.25, -0.25],
      "type": "VEC3"
    },
    {
      "bufferView": 11,
      "componentType": 5126,
      "count": 24,
      "type": "VEC3"
    },
    {
      "bufferView": 12,
      "componentType": 5126,
      "count": 24,
      "type": "VEC2"
    },
    {
      "bufferView": 13,
      "componentType": 5126,
      "count": 24,
      "max": [0.03125, 0.15625, 0.28125],
      "min": [-0.03125, -0.15625, -0.28125],
      "type": "VEC3"
    },
    {
      "bufferView": 14,
      "componentType": 5126,
      "count": 24,
      "type": "VEC3"
    },
    {
      "bufferView": 15,
      "componentType": 5126,
      "count": 24,
      "type": "VEC2"
    },
    {
      "bufferView": 16,
      "componentType": 5126,
      "count": 24,
      "max": [0.03125, 0.15625, 0.28125],
      "min": [-0.03125, -0.15625, -0.28125],
      "type": "VEC3"
    },
    {
      "bufferView": 17,
      "componentType": 5126,
      "count": 24,
      "type": "VEC3"
    },
    {
      "bufferView": 18,
      "componentType": 5126,
      "count": 24,
      "type": "VEC2"
    }
  ],
  "bufferViews": [
    {
      "buffer": 0,
      "byteLength": 288,
      "byteOffset": 0,
      "target": 34962
    },
    {
      "buffer": 0,
      "byteLength": 288,
      "byteOffset": 288,
      "target": 34962
    },
    {
      "buffer": 0,
      "byteLength": 192,
      "byteOffset": 576,
      "target": 34962
    },
    {
      "buffer": 0,
      "byteLength": 72,
      "byteOffset": 768,
      "target": 34963
    },
    {
      "buffer": 0,
      "byteLength": 288,
      "byteOffset": 840,
      "target": 34962
    },
    {
      "buffer": 0,
      "byteLength": 288,
      "byteOffset": 1128,
      "target": 34962
    },
    {
      "buffer": 0,
      "byteLength": 192,
      "byteOffset": 1416,
      "target": 34962
    },
    {
      "buffer": 0,
      "byteLength": 288,
      "byteOffset": 1608,
      "target": 34962
    },
    {
      "buffer": 0,
      "byteLength": 288,
      "byteOffset": 1896,
      "target": 34962
    },
    {
      "buffer": 0,
      "byteLength": 192,
      "byteOffset": 2184,
      "target": 34962
    },
    {
      "buffer": 0,
      "byteLength": 288,
      "byteOffset": 2376,
      "target": 34962
    },
    {
      "buffer": 0,
      "byteLength": 288,
      "byteOffset": 2664,
      "target": 34962
    },
    {
      "buffer": 0,
      "byteLength": 192,
      "byteOffset": 2952,
      "target": 34962
    },
    {
      "buffer": 0,
      "byteLength": 288,
      "byteOffset": 3144,
      "target": 34962
    },
    {
      "buffer": 0,
      "byteLength": 288,
      "byteOffset": 3432,
      "target": 34962
    },
    {
      "buffer": 0,
      "byteLength": 192,
      "byteOffset": 3720,
      "target": 34962
    },
    {
      "buffer": 0,
      "byteLength": 288,
      "byteOffset": 3912,
      "target": 34962
    },
    {
      "buffer": 0,
      "byteLength": 288,
      "byteOffset": 4200,
      "target": 34962
    },
    {
      "buffer": 0,
      "byteLength": 192,
      "byteOffset": 4488,
      "target": 34962
    }
  ],
  "samplers": [
    {
      "magFilter": 9728,
      "minFilter": 9984,
      "wrapS": 33071,
      "wrapT": 33071
    }
  ],
  "buffers": [
    {
      "byteLength": 4680,
      "uri": "scene.bin"
    }
  ]
}
