<svg width="191" height="188" viewBox="0 0 191 188" fill="none" xmlns="http://www.w3.org/2000/svg">
<g filter="url(#filter0_d_299_44)">
<path d="M114.477 35.5398C113.087 31.437 115.296 27.0166 119.413 25.6666L120.946 25.1636C125.063 23.8136 129.527 26.0452 130.917 30.148L164.062 127.955C165.453 132.058 163.243 136.478 159.127 137.828L157.593 138.331C153.477 139.681 149.013 137.449 147.622 133.347L114.477 35.5398Z" fill="#010000"/>
<path d="M118.824 99.2442C117.32 96.7972 118.114 93.6449 120.599 92.2033C123.083 90.7616 126.316 91.5767 127.82 94.0237L129.698 97.0798C131.202 99.5268 130.408 102.679 127.923 104.121C125.439 105.562 122.206 104.747 120.702 102.3L118.824 99.2442Z" fill="#010000"/>
<path d="M57.9083 66.0628C55.2399 62.6502 55.948 57.8617 59.4898 55.3674L60.6797 54.5294C64.2216 52.0351 69.2559 52.7796 71.9243 56.1922L136.303 138.527C138.971 141.94 138.263 146.728 134.721 149.223L133.531 150.061C129.99 152.555 124.955 151.811 122.287 148.398L57.9083 66.0628Z" fill="#010000"/>
<path d="M14.9968 110.741C11.489 108.199 10.8984 103.445 13.6776 100.122L14.4367 99.2145C17.2159 95.8915 22.3126 95.2583 25.8204 97.8002L112.138 160.349C115.646 162.891 116.236 167.645 113.457 170.968L112.698 171.876C109.919 175.199 104.822 175.832 101.314 173.29L14.9968 110.741Z" fill="#010000"/>
<path d="M83.8044 130.553C81.7034 128.665 81.637 125.533 83.6561 123.558C85.6752 121.582 89.0152 121.511 91.1162 123.399L94.1058 126.086C96.2068 127.974 96.2732 131.106 94.2541 133.082C92.235 135.057 88.895 135.128 86.794 133.24L83.8044 130.553Z" fill="#010000"/>
<path d="M114.477 35.5398C113.087 31.437 115.296 27.0166 119.413 25.6666L120.946 25.1636C125.063 23.8136 129.527 26.0452 130.917 30.148L164.062 127.955C165.453 132.058 163.243 136.478 159.127 137.828L157.593 138.331C153.477 139.681 149.013 137.449 147.622 133.347L114.477 35.5398Z" fill="#010000"/>
<path d="M118.824 99.2442C117.32 96.7972 118.114 93.6449 120.599 92.2033C123.083 90.7616 126.316 91.5767 127.82 94.0237L129.698 97.0798C131.202 99.5268 130.408 102.679 127.923 104.121C125.439 105.562 122.206 104.747 120.702 102.3L118.824 99.2442Z" fill="#010000"/>
<path d="M57.9083 66.0628C55.2399 62.6502 55.948 57.8617 59.4898 55.3674L60.6797 54.5294C64.2216 52.0351 69.2559 52.7796 71.9243 56.1922L136.303 138.527C138.971 141.94 138.263 146.728 134.721 149.223L133.531 150.061C129.99 152.555 124.955 151.811 122.287 148.398L57.9083 66.0628Z" fill="#010000"/>
<path d="M14.9968 110.741C11.489 108.199 10.8984 103.445 13.6776 100.122L14.4367 99.2145C17.2159 95.8915 22.3126 95.2583 25.8204 97.8002L112.138 160.349C115.646 162.891 116.236 167.645 113.457 170.968L112.698 171.876C109.919 175.199 104.822 175.832 101.314 173.29L14.9968 110.741Z" fill="#010000"/>
<path d="M83.8044 130.553C81.7034 128.665 81.637 125.533 83.6561 123.558C85.6752 121.582 89.0152 121.511 91.1162 123.399L94.1058 126.086C96.2068 127.974 96.2732 131.106 94.2541 133.082C92.235 135.057 88.895 135.128 86.794 133.24L83.8044 130.553Z" fill="#010000"/>
<path d="M157.593 138.331L159.127 137.828C163.243 136.478 165.453 132.058 164.062 127.955L130.917 30.148C129.527 26.0452 125.063 23.8136 120.946 25.1636L119.413 25.6666C115.296 27.0166 113.087 31.437 114.477 35.5398L147.622 133.347C149.013 137.449 153.477 139.681 157.593 138.331ZM127.923 104.121C125.439 105.562 122.206 104.747 120.702 102.3L118.824 99.2442C117.32 96.7972 118.114 93.6449 120.599 92.2033C123.083 90.7616 126.316 91.5767 127.82 94.0237L129.698 97.0798C131.202 99.5268 130.408 102.679 127.923 104.121ZM133.531 150.061L134.721 149.223C138.263 146.728 138.971 141.94 136.303 138.527L71.9243 56.1922C69.2559 52.7796 64.2216 52.0351 60.6797 54.5294L59.4898 55.3674C55.948 57.8617 55.2399 62.6502 57.9083 66.0628L122.287 148.398C124.955 151.811 129.99 152.555 133.531 150.061ZM112.698 171.876L113.457 170.968C116.236 167.645 115.646 162.891 112.138 160.349L25.8204 97.8002C22.3126 95.2583 17.2159 95.8915 14.4367 99.2145L13.6776 100.122C10.8984 103.445 11.489 108.199 14.9968 110.741L101.314 173.29C104.822 175.832 109.919 175.199 112.698 171.876ZM94.2541 133.082C92.235 135.057 88.895 135.128 86.794 133.24L83.8044 130.553C81.7034 128.665 81.637 125.533 83.6561 123.558C85.6752 121.582 89.0152 121.511 91.1162 123.399L94.1058 126.086C96.2068 127.974 96.2732 131.106 94.2541 133.082Z" stroke="black"/>
</g>
<defs>
<filter id="filter0_d_299_44" x="7.92529" y="24.7695" width="160.553" height="158.079" filterUnits="userSpaceOnUse" color-interpolation-filters="sRGB">
<feFlood flood-opacity="0" result="BackgroundImageFix"/>
<feColorMatrix in="SourceAlpha" type="matrix" values="0 0 0 0 0 0 0 0 0 0 0 0 0 0 0 0 0 0 127 0" result="hardAlpha"/>
<feOffset dy="4"/>
<feGaussianBlur stdDeviation="2"/>
<feComposite in2="hardAlpha" operator="out"/>
<feColorMatrix type="matrix" values="0 0 0 0 0 0 0 0 0 0 0 0 0 0 0 0 0 0 0.25 0"/>
<feBlend mode="normal" in2="BackgroundImageFix" result="effect1_dropShadow_299_44"/>
<feBlend mode="normal" in="SourceGraphic" in2="effect1_dropShadow_299_44" result="shape"/>
</filter>
</defs>
</svg>
