<svg width="373" height="372" viewBox="0 0 373 372" fill="none" xmlns="http://www.w3.org/2000/svg">
<path d="M372.719 186C372.719 288.725 289.283 372 186.359 372C83.436 372 0 288.725 0 186C0 83.275 83.436 0 186.359 0C289.283 0 372.719 83.275 372.719 186Z" fill="black"/>
<path d="M18.4273 257.485C18.4273 257.485 107.719 271.5 43.7063 303.972C-20.3062 336.444 12.7182 353.5 12.7182 353.5L186.359 372L18.4273 257.485Z" fill="black"/>
<path d="M33.7188 304C33.7188 304 52.8299 296.408 59.8128 294.449C66.7957 292.49 76.7188 292 76.7188 292" stroke="#FBD652" stroke-width="7" stroke-linecap="round"/>
<path d="M68.778 64.0924C68.778 64.0924 78.1317 51.4602 108 36.8766C137.868 22.2929 165.692 20.8853 165.692 20.8853" stroke="#FBD652" stroke-width="7" stroke-linecap="round"/>
</svg>
