<?xml version="1.0" encoding="UTF-8"?>
<svg id="Layer_5" data-name="Layer 5" xmlns="http://www.w3.org/2000/svg" viewBox="0 0 4231.09 1273">
  <defs>
    <style>
      .cls-1 {
        fill: #000;
        stroke-width: 0px;
      }
    </style>
  </defs>
  <path class="cls-1" d="M547.9,576.44c-.74,133.08,51.85,223.56,134.12,315.41,0,0,64.85-17.69,129.7-5.9,7.4,1.34,13.25,2.95,17.69,4.42,13.27,4.42,10.32,26.53-10.32,22.11-48.64-8.84-73.02-9.09-124.84,4.63-84.47,23.46-136.48,109.76-131.62,192.87,11.17-.03,476.02.03,505.08,0,285.83,0,524.72-244.14,526.64-529.95-23.14-696.48-1018.61-699.75-1046.45-3.6ZM912.81,149.85c-.19.07-9.85,3.42-25.51,11.11-15.67,7.68-37.33,19.69-61.55,37.07-44.56,31.95-107.15,89.17-152.31,180.24-2.06,4.16-6.23,6.56-10.58,6.56-1.75,0-3.54-.4-5.22-1.22-5.84-2.9-8.22-9.98-5.34-15.8,47.53-95.83,113.52-155.95,160.51-189.51,51.11-36.52,90.75-50.2,92.41-50.78,6.16-2.09,12.85,1.21,14.96,7.38,2.09,6.16-1.21,12.85-7.37,14.95Z"/>
</svg>