{
  "asset": {
    "generator": "Khronos glTF Blender I/O v4.1.63",
    "version": "2.0"
  },
  "extensionsUsed": ["KHR_materials_specular"],
  "scene": 0,
  "scenes": [
    {
      "name": "Scene",
      "nodes": [8]
    }
  ],
  "nodes": [
    {
      "mesh": 0,
      "name": "Ducksaw_Ducksaw_0",
      "translation": [
        0.7343740463256836, 0.0003451148804742843, -1.9835225343704224
      ]
    },
    {
      "children": [0],
      "name": "Ducksaw",
      "rotation": [-0.70710688829422, 0, 0, 0.7071066498756409],
      "scale": [100, 100, 99.99998474121094],
      "translation": [0, -1.7881393432617188e-5, 2.86102294921875e-6]
    },
    {
      "mesh": 1,
      "name": "Saw_Ducksaw_0"
    },
    {
      "children": [2],
      "name": "Saw",
      "rotation": [-0.70710688829422, 0, 0, 0.7071066498756409],
      "scale": [100, 100, 99.99998474121094],
      "translation": [0, -1.7881393432617188e-5, 2.86102294921875e-6]
    },
    {
      "mesh": 2,
      "name": "Teeth_Ducksaw_0"
    },
    {
      "children": [4],
      "name": "Teeth",
      "rotation": [-0.70710688829422, 0, 0, 0.7071066498756409],
      "scale": [100, 100, 99.99998474121094],
      "translation": [0, -1.7881393432617188e-5, 2.86102294921875e-6]
    },
    {
      "children": [1, 3, 5],
      "name": "RootNode.001",
      "translation": [0, -1.7881393432617188e-5, 2.86102294921875e-6]
    },
    {
      "children": [6],
      "name": "rubber_duck.fbx",
      "rotation": [0.7071068286895752, 0, 0, 0.7071067094802856],
      "scale": [
        0.009999999776482582, 0.010000000707805157, 0.010000000707805157
      ]
    },
    {
      "children": [7],
      "name": "Sketchfab_model.002",
      "rotation": [
        -0.7730076909065247, 0.3064006567001343, 0.16888608038425446,
        0.5292024612426758
      ],
      "scale": [0.3196362257003784, 0.3196362555027008, 0.3196362257003784],
      "translation": [
        -0.13722997903823853, 0.6493471264839172, -0.1302943229675293
      ]
    }
  ],
  "materials": [
    {
      "doubleSided": true,
      "extensions": {
        "KHR_materials_specular": {
          "specularFactor": 0.19991563260555267
        }
      },
      "name": "Ducksaw.001",
      "normalTexture": {
        "index": 0
      },
      "occlusionTexture": {
        "index": 1
      },
      "pbrMetallicRoughness": {
        "baseColorTexture": {
          "index": 2
        },
        "metallicRoughnessTexture": {
          "index": 1
        }
      }
    }
  ],
  "meshes": [
    {
      "name": "Ducksaw_Ducksaw_0.001",
      "primitives": [
        {
          "attributes": {
            "POSITION": 0,
            "NORMAL": 1,
            "TEXCOORD_0": 2
          },
          "indices": 3,
          "material": 0
        }
      ]
    },
    {
      "name": "Saw_Ducksaw_0.001",
      "primitives": [
        {
          "attributes": {
            "POSITION": 4,
            "NORMAL": 5,
            "TEXCOORD_0": 6
          },
          "indices": 7,
          "material": 0
        }
      ]
    },
    {
      "name": "Teeth_Ducksaw_0.001",
      "primitives": [
        {
          "attributes": {
            "POSITION": 8,
            "NORMAL": 9,
            "TEXCOORD_0": 10
          },
          "indices": 11,
          "material": 0
        }
      ]
    }
  ],
  "textures": [
    {
      "sampler": 0,
      "source": 0
    },
    {
      "sampler": 0,
      "source": 1
    },
    {
      "sampler": 0,
      "source": 2
    }
  ],
  "images": [
    {
      "mimeType": "image/png",
      "name": "Ducksaw_normal",
      "uri": "textures/Ducksaw_normal.png"
    },
    {
      "mimeType": "image/png",
      "name": "Ducksaw_metallicRoughness",
      "uri": "textures/Ducksaw_metallicRoughness.png"
    },
    {
      "mimeType": "image/jpeg",
      "name": "Ducksaw_baseColor",
      "uri": "textures/Ducksaw_baseColor.jpg"
    }
  ],
  "accessors": [
    {
      "bufferView": 0,
      "componentType": 5126,
      "count": 1410,
      "max": [7.5840911865234375, 1.9341981410980225, 4.578908920288086],
      "min": [-5.541548728942871, -1.9348883628845215, -3.7661304473876953],
      "type": "VEC3"
    },
    {
      "bufferView": 1,
      "componentType": 5126,
      "count": 1410,
      "type": "VEC3"
    },
    {
      "bufferView": 2,
      "componentType": 5126,
      "count": 1410,
      "type": "VEC2"
    },
    {
      "bufferView": 3,
      "componentType": 5123,
      "count": 3486,
      "type": "SCALAR"
    },
    {
      "bufferView": 4,
      "componentType": 5126,
      "count": 36,
      "max": [-0.7683591842651367, 0.13183972239494324, 1.1091363430023193],
      "min": [-13.548538208007812, -0.13183972239494324, -1.9712677001953125],
      "type": "VEC3"
    },
    {
      "bufferView": 5,
      "componentType": 5126,
      "count": 36,
      "type": "VEC3"
    },
    {
      "bufferView": 6,
      "componentType": 5126,
      "count": 36,
      "type": "VEC2"
    },
    {
      "bufferView": 7,
      "componentType": 5123,
      "count": 96,
      "type": "SCALAR"
    },
    {
      "bufferView": 8,
      "componentType": 5126,
      "count": 606,
      "max": [-0.7360541224479675, 0.1824520230293274, 1.2669545412063599],
      "min": [-13.7075777053833, -0.1824520230293274, -2.129150629043579],
      "type": "VEC3"
    },
    {
      "bufferView": 9,
      "componentType": 5126,
      "count": 606,
      "type": "VEC3"
    },
    {
      "bufferView": 10,
      "componentType": 5126,
      "count": 606,
      "type": "VEC2"
    },
    {
      "bufferView": 11,
      "componentType": 5123,
      "count": 1344,
      "type": "SCALAR"
    }
  ],
  "bufferViews": [
    {
      "buffer": 0,
      "byteLength": 16920,
      "byteOffset": 0,
      "target": 34962
    },
    {
      "buffer": 0,
      "byteLength": 16920,
      "byteOffset": 16920,
      "target": 34962
    },
    {
      "buffer": 0,
      "byteLength": 11280,
      "byteOffset": 33840,
      "target": 34962
    },
    {
      "buffer": 0,
      "byteLength": 6972,
      "byteOffset": 45120,
      "target": 34963
    },
    {
      "buffer": 0,
      "byteLength": 432,
      "byteOffset": 52092,
      "target": 34962
    },
    {
      "buffer": 0,
      "byteLength": 432,
      "byteOffset": 52524,
      "target": 34962
    },
    {
      "buffer": 0,
      "byteLength": 288,
      "byteOffset": 52956,
      "target": 34962
    },
    {
      "buffer": 0,
      "byteLength": 192,
      "byteOffset": 53244,
      "target": 34963
    },
    {
      "buffer": 0,
      "byteLength": 7272,
      "byteOffset": 53436,
      "target": 34962
    },
    {
      "buffer": 0,
      "byteLength": 7272,
      "byteOffset": 60708,
      "target": 34962
    },
    {
      "buffer": 0,
      "byteLength": 4848,
      "byteOffset": 67980,
      "target": 34962
    },
    {
      "buffer": 0,
      "byteLength": 2688,
      "byteOffset": 72828,
      "target": 34963
    }
  ],
  "samplers": [
    {
      "magFilter": 9729,
      "minFilter": 9987
    }
  ],
  "buffers": [
    {
      "byteLength": 75516,
      "uri": "scene.bin"
    }
  ]
}
