{
  "asset": {
    "generator": "Khronos glTF Blender I/O v4.1.63",
    "version": "2.0"
  },
  "scene": 0,
  "scenes": [
    {
      "name": "Scene",
      "nodes": [0]
    }
  ],
  "nodes": [
    {
      "mesh": 0,
      "name": "Duckstage2.1_Material.001_0",
      "rotation": [-0.6240622997283936, 0, 0, 0.7813745737075806],
      "scale": [0.9517220854759216, 0.951722264289856, 0.9517221450805664],
      "translation": [
        0.01439337246119976, 0.17508503794670105, 0.006916522979736328
      ]
    }
  ],
  "materials": [
    {
      "doubleSided": true,
      "name": "Material.001",
      "pbrMetallicRoughness": {
        "baseColorTexture": {
          "index": 0
        },
        "metallicFactor": 0,
        "roughnessFactor": 0.8211145401000977
      }
    }
  ],
  "meshes": [
    {
      "name": "Duckstage2.1_Material.001_0",
      "primitives": [
        {
          "attributes": {
            "POSITION": 0,
            "NORMAL": 1,
            "TEXCOORD_0": 2
          },
          "indices": 3,
          "material": 0
        }
      ]
    }
  ],
  "textures": [
    {
      "sampler": 0,
      "source": 0
    }
  ],
  "images": [
    {
      "mimeType": "image/png",
      "name": "Material.001_baseColor",
      "uri": "textures/Material_001_baseColor.png"
    }
  ],
  "accessors": [
    {
      "bufferView": 0,
      "componentType": 5126,
      "count": 44867,
      "max": [2.76531982421875, 2.6298270225524902, 2.953375816345215],
      "min": [-2.76542329788208, -2.5342698097229004, -2.010183334350586],
      "type": "VEC3"
    },
    {
      "bufferView": 1,
      "componentType": 5126,
      "count": 44867,
      "type": "VEC3"
    },
    {
      "bufferView": 2,
      "componentType": 5126,
      "count": 44867,
      "type": "VEC2"
    },
    {
      "bufferView": 3,
      "componentType": 5123,
      "count": 235200,
      "type": "SCALAR"
    }
  ],
  "bufferViews": [
    {
      "buffer": 0,
      "byteLength": 538404,
      "byteOffset": 0,
      "target": 34962
    },
    {
      "buffer": 0,
      "byteLength": 538404,
      "byteOffset": 538404,
      "target": 34962
    },
    {
      "buffer": 0,
      "byteLength": 358936,
      "byteOffset": 1076808,
      "target": 34962
    },
    {
      "buffer": 0,
      "byteLength": 470400,
      "byteOffset": 1435744,
      "target": 34963
    }
  ],
  "samplers": [
    {
      "magFilter": 9729,
      "minFilter": 9987
    }
  ],
  "buffers": [
    {
      "byteLength": 1906144,
      "uri": "scene.bin"
    }
  ]
}
