{
  "accessors": [
    {
      "bufferView": 2,
      "componentType": 5126,
      "count": 44863,
      "max": [
        2.767116069793701,
        2.6050684452056885,
        3.8131520748138428
      ],
      "min": [
        -2.763627052307129,
        -2.559028387069702,
        -1.1504071950912476
      ],
      "type": "VEC3"
    },
    {
      "bufferView": 2,
      "byteOffset": 538356,
      "componentType": 5126,
      "count": 44863,
      "max": [
        0.9999733567237854,
        0.9999657869338989,
        0.9999960660934448
      ],
      "min": [
        -0.9999406933784485,
        -0.9999971985816956,
        -0.9999967813491821
      ],
      "type": "VEC3"
    },
    {
      "bufferView": 1,
      "componentType": 5126,
      "count": 44863,
      "max": [
        0.9992781281471252,
        0.9904966950416565
      ],
      "min": [
        0.0007218718528747559,
        0.0007218420505523682
      ],
      "type": "VEC2"
    },
    {
      "bufferView": 0,
      "componentType": 5125,
      "count": 235200,
      "type": "SCALAR"
    }
  ],
  "asset": {
    "extras": {
      "author": "Pichael Productions (https://sketchfab.com/Pichael3000)",
      "license": "CC-BY-4.0 (http://creativecommons.org/licenses/by/4.0/)",
      "source": "https://sketchfab.com/3d-models/demon-duckling-f753ac1bb0e946c5a8352d6be63a60bd",
      "title": "Demon Duckling"
    },
    "generator": "Sketchfab-14.77.0",
    "version": "2.0"
  },
  "bufferViews": [
    {
      "buffer": 0,
      "byteLength": 940800,
      "name": "floatBufferViews",
      "target": 34963
    },
    {
      "buffer": 0,
      "byteLength": 358904,
      "byteOffset": 940800,
      "byteStride": 8,
      "name": "floatBufferViews",
      "target": 34962
    },
    {
      "buffer": 0,
      "byteLength": 1076712,
      "byteOffset": 1299704,
      "byteStride": 12,
      "name": "floatBufferViews",
      "target": 34962
    }
  ],
  "buffers": [
    {
      "byteLength": 2376416,
      "uri": "scene.bin"
    }
  ],
  "images": [
    {
      "uri": "textures/Material.001_baseColor.png"
    }
  ],
  "materials": [
    {
      "doubleSided": true,
      "name": "Material.001",
      "pbrMetallicRoughness": {
        "baseColorTexture": {
          "index": 0
        },
        "metallicFactor": 0.0,
        "roughnessFactor": 0.8211145618000169
      }
    }
  ],
  "meshes": [
    {
      "name": "Duckstage2.1_Material.001_0",
      "primitives": [
        {
          "attributes": {
            "NORMAL": 1,
            "POSITION": 0,
            "TEXCOORD_0": 2
          },
          "indices": 3,
          "material": 0,
          "mode": 4
        }
      ]
    }
  ],
  "nodes": [
    {
      "children": [
        1
      ],
      "matrix": [
        1.0,
        0.0,
        0.0,
        0.0,
        0.0,
        2.220446049250313e-16,
        -1.0,
        0.0,
        0.0,
        1.0,
        2.220446049250313e-16,
        0.0,
        0.0,
        0.0,
        0.0,
        1.0
      ],
      "name": "Sketchfab_model"
    },
    {
      "children": [
        2
      ],
      "matrix": [
        0.009999999776482582,
        0.0,
        0.0,
        0.0,
        0.0,
        0.0,
        0.009999999776482582,
        0.0,
        0.0,
        -0.009999999776482582,
        0.0,
        0.0,
        0.0,
        0.0,
        0.0,
        1.0
      ],
      "name": "c2a33cdbcb254b93867e46da18250a79.fbx"
    },
    {
      "children": [
        3
      ],
      "name": "RootNode"
    },
    {
      "children": [
        4
      ],
      "matrix": [
        1.2696847858477208e-06,
        -3.224864917884514e-15,
        -29.04700088500974,
        0.0,
        -29.047000885009712,
        -1.2696847858477208e-06,
        -1.2696847874601533e-06,
        0.0,
        -1.2696847874601533e-06,
        29.04700088500974,
        -5.804756852192125e-14,
        0.0,
        -6.374572602359154e-15,
        -28.70852279663086,
        314.5119323730469,
        1.0
      ],
      "name": "Duckstage2.1"
    },
    {
      "mesh": 0,
      "name": "Duckstage2.1_Material.001_0"
    }
  ],
  "samplers": [
    {
      "magFilter": 9729,
      "minFilter": 9987,
      "wrapS": 10497,
      "wrapT": 10497
    }
  ],
  "scene": 0,
  "scenes": [
    {
      "name": "Sketchfab_Scene",
      "nodes": [
        0
      ]
    }
  ],
  "textures": [
    {
      "sampler": 0,
      "source": 0
    }
  ]
}
